<svg width="20" height="20" viewBox="0 0 20 20" fill="none" xmlns="http://www.w3.org/2000/svg">
<g clip-path="url(#clip0_24209_300625)">
<path fill-rule="evenodd" clip-rule="evenodd" d="M8.37574 14.6378L5 16.5856V5.625H15V16.5856L11.6243 14.6378C11.5994 14.6234 11.5739 14.6086 11.5478 14.5934L11.5477 14.5934C11.2677 14.4305 10.9156 14.2256 10.5195 14.1415C10.177 14.0687 9.823 14.0687 9.48048 14.1415C9.08438 14.2256 8.73225 14.4305 8.45224 14.5934C8.4261 14.6086 8.4006 14.6234 8.37574 14.6378ZM14.9964 4.375H5.00363C5.00733 4.1094 5.01482 3.89448 5.02991 3.70979C5.05765 3.37022 5.10475 3.24432 5.13624 3.18251C5.25608 2.94731 5.44731 2.75608 5.68251 2.63624C5.74432 2.60475 5.87022 2.55765 6.20979 2.52991C6.56397 2.50097 7.02931 2.5 7.75 2.5H12.25C12.9707 2.5 13.436 2.50097 13.7902 2.52991C14.1298 2.55765 14.2557 2.60475 14.3175 2.63624C14.5527 2.75608 14.7439 2.94731 14.8638 3.18251C14.8952 3.24432 14.9423 3.37022 14.9701 3.70979C14.9852 3.89448 14.9927 4.1094 14.9964 4.375ZM16.2465 4.375C16.2351 3.53119 16.1862 3.02462 15.9775 2.61502C15.7378 2.14462 15.3554 1.76217 14.885 1.52248C14.3502 1.25 13.6501 1.25 12.25 1.25H7.75C6.34987 1.25 5.6498 1.25 5.11502 1.52248C4.64462 1.76217 4.26217 2.14462 4.02248 2.61502C3.81378 3.02462 3.76493 3.53119 3.75349 4.375H3.75V5.25V5.625V17.0185C3.75 17.5867 3.75 17.8708 3.86934 18.0351C3.97343 18.1784 4.13342 18.2708 4.30956 18.2894C4.51149 18.3106 4.75758 18.1686 5.24977 17.8846L9.00045 15.7205C9.3646 15.5104 9.54668 15.4053 9.74024 15.3642C9.9115 15.3278 10.0885 15.3278 10.2598 15.3642C10.4533 15.4053 10.6354 15.5104 10.9995 15.7205L14.7502 17.8846C15.2424 18.1686 15.4885 18.3106 15.6904 18.2894C15.8666 18.2708 16.0266 18.1784 16.1307 18.0351C16.25 17.8708 16.25 17.5867 16.25 17.0185V5.625V5.25V4.375H16.2465Z" fill="#707070"/>
</g>
<defs>
<clipPath id="clip0_24209_300625">
<rect width="20" height="20" fill="white"/>
</clipPath>
</defs>
</svg>