<?xml version="1.0" encoding="UTF-8"?>
<svg width="18px" height="14px" viewBox="0 0 18 14" version="1.1" xmlns="http://www.w3.org/2000/svg" xmlns:xlink="http://www.w3.org/1999/xlink">
    <!-- Generator: Sketch 54.1 (76490) - https://sketchapp.com -->
    <title>payment icon</title>
    <desc>Created with Sketch.</desc>
    <g id="UI-Spec" stroke="none" stroke-width="1" fill="none" fill-rule="evenodd">
        <g id="icons" transform="translate(-41.000000, -263.000000)">
            <g id="payment-icon" transform="translate(40.000000, 260.000000)">
                <g id="icon/payment/cash">
                    <rect id="bounds" x="0" y="0" width="20" height="20"></rect>
                    <g id="cash" transform="translate(1.666667, 4.166667)">
                        <path d="M0,10.6060606 L0,1.06060606 C0,0.474621212 0.497222222,0 1.11111111,0 L15.5555556,0 C16.1694444,0 16.6666667,0.474621212 16.6666667,1.06060606 L16.6666667,10.6060606 C16.6666667,11.1920455 16.1694444,11.6666667 15.5555556,11.6666667 L1.11111111,11.6666667 C0.497222222,11.6666667 0,11.1920455 0,10.6060606 Z" id="Shape" stroke="#676767" stroke-linecap="square"></path>
                        <path d="M7.68781911,8.25492341 C7.31825733,8.21115952 6.98030788,8.09688884 6.67396061,7.91210795 L6.67396061,7.29212254 L6.7031364,7.27753465 C6.89277994,7.39910102 7.06661725,7.49392137 7.22465354,7.56199854 C7.38268982,7.63007571 7.55652713,7.67870153 7.74617068,7.70787746 L7.95040117,5.87709701 C7.53221284,5.7263547 7.21371371,5.54157659 6.99489424,5.32275711 C6.77607476,5.10393764 6.66666667,4.82433917 6.66666667,4.48395332 C6.66666667,4.20191933 6.73352717,3.95757458 6.86725018,3.75091174 C7.00097319,3.54424891 7.18332002,3.38621499 7.41429613,3.27680525 C7.64527225,3.16739551 7.90177345,3.11269147 8.18380744,3.11269147 L8.2567469,3.11269147 L8.32239241,2.5 L8.78191101,2.5 L8.70897155,3.1491612 C8.99100554,3.19292509 9.24872239,3.28531415 9.48212983,3.42633115 L9.48212983,4.00984683 L9.45295405,4.02443472 C9.3070744,3.93204427 9.17213775,3.85910554 9.04814004,3.80561634 C8.92414234,3.75212713 8.79163698,3.71322648 8.65061999,3.6889132 L8.46097739,5.41757841 C8.762462,5.52455682 9.00802239,5.63274927 9.19766594,5.74215901 C9.38730948,5.85156875 9.53561823,5.99501492 9.64259664,6.17250182 C9.74957505,6.34998873 9.80306346,6.57731444 9.80306346,6.85448578 C9.80306346,7.30671269 9.64746083,7.65803425 9.33625091,7.90846098 C9.02504099,8.15888771 8.62630926,8.2840992 8.14004376,8.2840992 L8.04522247,9.16666667 L7.58570387,9.16666667 L7.68781911,8.25492341 Z M8.19839533,3.65244347 C7.89691072,3.65244347 7.66958501,3.72051962 7.51641138,3.85667396 C7.36323775,3.9928283 7.28665208,4.18003771 7.28665208,4.4183078 C7.28665208,4.63226462 7.34135613,4.80367064 7.45076586,4.932531 C7.5601756,5.06139136 7.74860066,5.1720151 8.01604668,5.26440554 L8.19839533,3.65244347 Z M8.20568928,7.73705325 C8.50231123,7.72246528 8.73693082,7.63980139 8.90955507,7.48905908 C9.08217932,7.33831678 9.16849015,7.13895091 9.16849015,6.89095551 C9.16849015,6.65754807 9.10892352,6.48006382 8.98978848,6.35849745 C8.87065343,6.23693107 8.67250321,6.12752298 8.39533187,6.03026988 L8.20568928,7.73705325 Z" id="$" fill="#676767"></path>
                    </g>
                </g>
            </g>
        </g>
    </g>
</svg>
