<svg width="20" height="20" viewBox="0 0 20 20" fill="none" xmlns="http://www.w3.org/2000/svg">
<path fill-rule="evenodd" clip-rule="evenodd" d="M19.6924 0.308515C19.2823 -0.101536 18.6175 -0.101536 18.2075 0.308514L9.99995 8.51603L1.79246 0.308546C1.38241 -0.101505 0.717588 -0.101504 0.307538 0.308546C-0.102512 0.718597 -0.102513 1.38342 0.307538 1.79347L8.51503 10.001L0.307598 18.2084C-0.102452 18.6184 -0.102451 19.2833 0.307599 19.6933C0.717649 20.1034 1.38247 20.1034 1.79252 19.6933L9.99995 11.4859L18.2074 19.6933C18.6175 20.1034 19.2823 20.1034 19.6923 19.6933C20.1024 19.2833 20.1024 18.6185 19.6923 18.2084L11.4849 10.001L19.6924 1.79344C20.1024 1.38339 20.1024 0.718565 19.6924 0.308515Z" fill="#1A1A1A"/>
</svg>
