<svg width="20" height="20" viewBox="0 0 20 20" fill="none" xmlns="http://www.w3.org/2000/svg">
<g clip-path="url(#clip0_13494_201755)">
<path d="M10.0066 20C15.5331 20 20.0133 15.5228 20.0133 10C20.0133 4.47715 15.5331 0 10.0066 0C4.48012 0 0 4.47715 0 10C0 15.5228 4.48012 20 10.0066 20Z" fill="#FFEC8F"/>
<mask id="mask0_13494_201755" style="mask-type:alpha" maskUnits="userSpaceOnUse" x="0" y="0" width="21" height="20">
<path d="M10.0066 20C15.5331 20 20.0133 15.5228 20.0133 10C20.0133 4.47715 15.5331 0 10.0066 0C4.48012 0 0 4.47715 0 10C0 15.5228 4.48012 20 10.0066 20Z" fill="#CCEFDC"/>
</mask>
<g mask="url(#mask0_13494_201755)">
<path d="M2.50117 15.6611L19.9043 15.6611V5.00028L2.50117 5.00028V15.6611Z" fill="#FDB47E"/>
<path d="M2.50038 15.6611H9.70703L9.70703 5.00028H2.50038L2.50038 15.6611Z" fill="#E48544"/>
<path d="M4.7716 8.54248H7.43945V4.99989H4.7716V8.54248Z" fill="#C66E34"/>
<path d="M11.5985 14.7505H15.0234V12.5992H11.5985V14.7505Z" fill="#FDB47E"/>
<path d="M15.0469 12.5122C17.8083 12.5122 20.0469 10.2736 20.0469 7.51221C20.0469 4.75078 17.8083 2.51221 15.0469 2.51221C12.2855 2.51221 10.0469 4.75078 10.0469 7.51221C10.0469 10.2736 12.2855 12.5122 15.0469 12.5122Z" fill="#50565E"/>
</g>
</g>
<path d="M16.1924 7.58603L16.1927 7.58582C16.4716 7.38386 16.6846 7.18021 16.8296 6.9744C16.9773 6.76478 17.05 6.51256 17.05 6.22036C17.05 5.8146 16.8908 5.49888 16.5722 5.27973C16.2575 5.05856 15.8551 4.95 15.369 4.95C14.8107 4.95 14.3449 5.05811 13.9745 5.27778L13.95 5.2923V5.32078V5.89958V5.93304L13.9809 5.9458L14.0147 5.95975L14.0375 5.96914L14.0588 5.95682C14.2815 5.8282 14.4889 5.73711 14.6812 5.6827L14.6812 5.68271L14.6823 5.68239C14.8738 5.6237 15.094 5.59393 15.3437 5.59393C15.6423 5.59393 15.8569 5.65573 15.9963 5.77078L15.9963 5.77079L15.997 5.77134C16.143 5.88747 16.2148 6.03584 16.2148 6.22036C16.2148 6.41703 16.1688 6.57594 16.0804 6.70047C15.9889 6.82924 15.8443 6.96731 15.6439 7.11432C15.3437 7.32933 15.1298 7.52622 15.0067 7.70528L15.0067 7.70527L15.0061 7.70621C14.8868 7.88829 14.8289 8.11465 14.8289 8.38215V8.58438V8.63438H14.8789H15.5718H15.6218V8.58438V8.38215C15.6218 8.21458 15.6643 8.07975 15.7461 7.97404C15.8379 7.86285 15.9858 7.73351 16.1924 7.58603ZM15.6894 9.35146V9.30146H15.6394H14.8197H14.7697V9.35146V10V10.05H14.8197H15.6394H15.6894V10V9.35146Z" fill="white" stroke="white" stroke-width="0.1"/>
<defs>
<clipPath id="clip0_13494_201755">
<rect width="20" height="20" fill="white"/>
</clipPath>
</defs>
</svg>
