<svg width="3" height="13" viewBox="0 0 3 13" fill="none" xmlns="http://www.w3.org/2000/svg">
<path fill-rule="evenodd" clip-rule="evenodd" d="M-6.55671e-08 6.5C-1.01779e-07 7.32843 0.671573 8 1.5 8C2.32843 8 3 7.32843 3 6.5C3 5.67157 2.32843 5 1.5 5C0.671573 5 -2.93554e-08 5.67157 -6.55671e-08 6.5Z" fill="#9FA4AD"/>
<path fill-rule="evenodd" clip-rule="evenodd" d="M-6.55671e-08 1.5C-1.01779e-07 2.32843 0.671573 3 1.5 3C2.32843 3 3 2.32843 3 1.5C3 0.671573 2.32843 -2.93554e-08 1.5 -6.55671e-08C0.671573 -1.01779e-07 -2.93554e-08 0.671573 -6.55671e-08 1.5Z" fill="#9FA4AD"/>
<path fill-rule="evenodd" clip-rule="evenodd" d="M-6.55671e-08 11.5C-1.01779e-07 12.3284 0.671573 13 1.5 13C2.32843 13 3 12.3284 3 11.5C3 10.6716 2.32843 10 1.5 10C0.671573 10 -2.93554e-08 10.6716 -6.55671e-08 11.5Z" fill="#9FA4AD"/>
</svg>
