<svg width="30" height="30" viewBox="0 0 30 30" fill="none" xmlns="http://www.w3.org/2000/svg">
<circle cx="15" cy="15" r="15" fill="#001E1F"/>
<path d="M16.8571 15.0306L16.8571 15.0307L16.8584 15.0295C17.5 14.4664 17.9934 13.8958 18.3304 13.316C18.6771 12.7197 18.8443 12.0086 18.8443 11.1936C18.8443 10.0607 18.4773 9.15839 17.7186 8.52557C16.9738 7.89153 16.0233 7.58356 14.8887 7.58356C13.5949 7.58356 12.5035 7.88764 11.6324 8.51375L11.5283 8.58857V8.71676V10.3104V10.4649L11.6665 10.534L11.7433 10.5724L11.8765 10.639L11.9985 10.5536C12.497 10.2046 12.9561 9.96128 13.3762 9.81724L13.3762 9.81732L13.3822 9.81511C13.7972 9.66094 14.2789 9.58116 14.8311 9.58116C15.4838 9.58116 15.9274 9.74415 16.2095 10.0263L16.2095 10.0264L16.2128 10.0295C16.5169 10.3228 16.6739 10.7031 16.6739 11.1936C16.6739 11.7257 16.5711 12.146 16.3818 12.4687C16.182 12.8096 15.8633 13.1799 15.4149 13.5785C14.7277 14.1751 14.2305 14.7277 13.9417 15.2366L13.9417 15.2365L13.9392 15.2411C13.658 15.7613 13.5251 16.4005 13.5251 17.1456V17.7024V17.9524H13.7751H15.3495H15.5995V17.7024V17.1456C15.5995 16.6953 15.6939 16.3431 15.8655 16.0736C16.0658 15.7798 16.3927 15.4323 16.8571 15.0306ZM15.7531 19.8144V19.5644H15.5031H13.6407H13.3907V19.8144V21.6V21.85H13.6407H15.5031H15.7531V21.6V19.8144Z" fill="white" stroke="white" stroke-width="0.5"/>
</svg>
