<svg xmlns="http://www.w3.org/2000/svg" xmlns:xlink="http://www.w3.org/1999/xlink" width="24" height="24" viewBox="0 0 24 24">
    <defs>
        <path id="a" d="M0 .08h13.788v8.25H0"/>
        <path id="c" d="M0 .08h13.788v8.25H0"/>
    </defs>
    <g fill="none" fill-rule="evenodd">
        <path fill="#FFF" stroke="#676767" stroke-linecap="square" d="M2 17.727V6.273C2 5.57 2.597 5 3.333 5h17.334C21.403 5 22 5.57 22 6.273v11.454C22 18.43 21.403 19 20.667 19H3.333C2.597 19 2 18.43 2 17.727z"/>
        <g transform="translate(5 8)">
            <mask id="b" fill="#fff">
                <use xlink:href="#a"/>
            </mask>
            <path fill="#E92136" d="M8.25 4.205a4.125 4.125 0 1 1-8.25 0 4.125 4.125 0 0 1 8.25 0" mask="url(#b)"/>
        </g>
        <g transform="translate(5 8)">
            <mask id="d" fill="#fff">
                <use xlink:href="#c"/>
            </mask>
            <path fill="#FAAF41" d="M6.894 1.148a4.21 4.21 0 0 0-.417.437h.834c.114.138.219.284.314.436H6.163c-.088.14-.167.286-.238.437h1.938c.066.142.124.287.174.437H5.751a4.08 4.08 0 0 0-.12.437h2.526a4.147 4.147 0 0 1-.12 2.184H5.751c.05.15.108.295.174.436h1.938c-.07.151-.15.297-.238.437H6.163c.095.153.2.298.314.437h.834a4.12 4.12 0 0 1-.417.437 4.125 4.125 0 1 0 0-6.115z" mask="url(#d)"/>
        </g>
        <path fill="#1F3A6E" d="M8.488 13.415h-.372l.009-.176c-.113.139-.264.205-.47.205-.242 0-.409-.189-.409-.464 0-.415.29-.656.787-.656.05 0 .116.004.182.013a.418.418 0 0 0 .018-.11c0-.113-.078-.155-.287-.155-.22-.003-.4.052-.474.076l.062-.382c.223-.066.37-.09.536-.09.384 0 .588.172.587.498.001.088-.013.196-.036.338-.039.246-.122.774-.133.903m-.326-.758a.752.752 0 0 0-.1-.007c-.254 0-.382.087-.382.259 0 .106.062.173.16.173.182 0 .314-.173.322-.425M7.06 13.415H6.61l.257-1.608-.573 1.608H5.99l-.038-1.6-.27 1.6h-.419l.35-2.092h.644l.04 1.17.392-1.17h.716zM15.542 13.415h-.37l.008-.176c-.114.139-.265.205-.47.205-.243 0-.409-.189-.409-.464 0-.415.29-.656.786-.656.051 0 .116.004.183.013a.417.417 0 0 0 .017-.11c0-.113-.078-.155-.287-.155-.219-.003-.4.052-.474.076l.063-.382c.222-.066.37-.09.535-.09.385 0 .588.172.588.498 0 .088-.014.196-.036.338-.039.246-.123.774-.134.903m-.326-.758a.749.749 0 0 0-.1-.007c-.253 0-.382.087-.382.259 0 .106.063.173.16.173.183 0 .315-.173.322-.425M10.478 13.39a1.026 1.026 0 0 1-.322.054c-.229 0-.354-.131-.354-.373-.003-.076.033-.273.061-.454l.195-1.161h.445l-.052.257h.269l-.061.41h-.27c-.052.323-.125.726-.126.78 0 .087.047.126.153.126.051 0 .09-.006.12-.016l-.058.376zM11.592 12.367c.003-.036.047-.304-.207-.304-.142 0-.243.108-.284.304h.491zm.25 1.008c-.152.047-.3.07-.456.07-.499-.001-.758-.261-.758-.76 0-.581.33-1.01.779-1.01.367 0 .601.24.601.616 0 .125-.016.247-.055.419h-.886c-.03.246.128.35.387.35.159 0 .303-.034.463-.108l-.075.423zM8.756 12.251c0 .216.104.364.341.475.181.086.21.111.21.188 0 .106-.08.154-.258.154-.133 0-.258-.02-.401-.067l-.061.393c.101.022.192.043.466.05.472 0 .69-.18.69-.568 0-.234-.091-.371-.315-.475-.188-.086-.21-.105-.21-.184 0-.092.075-.14.22-.14.087 0 .207.01.321.026l.064-.394a3.019 3.019 0 0 0-.394-.034c-.501 0-.675.262-.673.576M14.02 11.72c.125 0 .24.033.4.113l.074-.454c-.066-.026-.297-.177-.492-.177-.3 0-.554.149-.732.394-.26-.086-.366.088-.497.261l-.117.028a.858.858 0 0 0 .015-.172h-.412c-.056.527-.156 1.06-.233 1.588l-.02.114h.447c.075-.486.116-.797.14-1.008l.17-.093c.025-.094.104-.126.262-.122-.02.111-.032.228-.032.35 0 .556.3.902.783.902a1.4 1.4 0 0 0 .395-.06l.079-.478a.871.871 0 0 1-.38.108c-.26 0-.418-.193-.418-.51 0-.46.234-.784.568-.784M17.252 13.022c-.153 0-.23-.113-.23-.336 0-.334.144-.571.347-.571.154 0 .238.117.238.333 0 .338-.147.574-.355.574zm.56-1.7l-.1.605c-.122-.16-.253-.278-.427-.278-.226 0-.432.172-.566.424-.188-.039-.382-.105-.382-.105v.002c.015-.141.021-.227.02-.257h-.412c-.055.527-.155 1.06-.233 1.588l-.02.114h.448c.06-.393.106-.719.14-.978.154-.138.23-.258.385-.25a1.46 1.46 0 0 0-.109.551c0 .426.215.706.54.706.165 0 .29-.056.414-.187l-.021.158h.423l.341-2.092h-.441z"/>
        <path fill="#FEFEFE" d="M7.188 13.29H6.74l.257-1.607-.573 1.608h-.305l-.038-1.599-.27 1.599h-.419l.35-2.092h.644l.018 1.295.435-1.295h.695zM8.616 13.29h-.37l.008-.175c-.113.139-.264.205-.47.205-.242 0-.409-.19-.409-.464 0-.415.29-.656.787-.656.05 0 .115.004.182.013a.42.42 0 0 0 .018-.11c0-.113-.078-.155-.287-.155-.22-.003-.4.052-.475.076l.063-.383c.223-.065.37-.09.536-.09.384 0 .588.173.587.5.001.087-.013.195-.036.336-.039.247-.122.775-.134.904m-.325-.758a.747.747 0 0 0-.1-.007c-.254 0-.383.087-.383.259 0 .106.063.173.161.173.182 0 .314-.173.322-.425M14.623 11.255l-.074.454a.854.854 0 0 0-.4-.113c-.334 0-.568.323-.568.784 0 .318.157.51.417.51.11 0 .233-.034.38-.108l-.078.477a1.401 1.401 0 0 1-.396.061c-.482 0-.782-.346-.782-.903 0-.748.415-1.27 1.008-1.27.196 0 .427.082.493.108M15.671 13.29h-.37l.008-.175c-.114.139-.265.205-.47.205-.243 0-.409-.19-.409-.464 0-.415.29-.656.786-.656.051 0 .116.004.183.013a.421.421 0 0 0 .017-.11c0-.113-.078-.155-.287-.155-.219-.003-.4.052-.474.076l.062-.383c.223-.065.37-.09.536-.09.385 0 .588.173.588.5a2.15 2.15 0 0 1-.036.336c-.04.247-.122.775-.134.904m-.326-.758a.742.742 0 0 0-.1-.007c-.253 0-.382.087-.382.259 0 .106.063.173.16.173.183 0 .315-.173.322-.425M10.607 13.265a1.025 1.025 0 0 1-.322.055c-.229 0-.354-.131-.354-.373-.003-.076.033-.273.061-.454l.195-1.161h.445l-.052.257h.228l-.06.41h-.23c-.052.323-.125.726-.126.78 0 .087.047.125.153.125.051 0 .09-.004.12-.016l-.058.377zM11.721 12.243c.003-.036.047-.304-.207-.304-.142 0-.243.108-.284.304h.491zm.25 1.009c-.152.046-.3.069-.456.068-.499 0-.758-.26-.758-.759 0-.581.33-1.01.778-1.01.368 0 .602.24.602.616 0 .125-.016.247-.055.419h-.886c-.03.247.128.35.387.35.159 0 .303-.033.463-.108l-.075.424zM8.885 12.127c0 .216.104.364.341.476.181.085.21.11.21.187 0 .106-.08.154-.258.154-.133 0-.258-.02-.401-.067l-.062.393c.102.022.193.043.466.05.473 0 .691-.18.691-.568 0-.234-.091-.371-.315-.474-.188-.087-.21-.106-.21-.185 0-.092.075-.14.22-.14.087 0 .207.01.321.026l.064-.394a3.054 3.054 0 0 0-.394-.034c-.501 0-.675.262-.673.576M17.38 12.898c.21 0 .356-.237.356-.574 0-.216-.084-.333-.238-.333-.203 0-.347.237-.347.571 0 .223.077.336.23.336zm.661.393h-.423l.02-.159a.527.527 0 0 1-.412.188c-.326 0-.54-.28-.54-.706 0-.566.333-1.043.728-1.043.173 0 .305.071.427.232l.1-.604h.441l-.34 2.092zM16.075 11.59c-.057.526-.156 1.06-.234 1.586l-.02.115h.447c.16-1.04.2-1.244.45-1.218.04-.213.115-.4.17-.494-.187-.039-.292.067-.429.269.01-.088.03-.172.027-.259h-.411zM12.388 11.59c-.056.526-.156 1.06-.234 1.586l-.02.115h.448c.16-1.04.199-1.244.45-1.218.04-.213.115-.4.17-.494-.187-.039-.292.067-.43.269.012-.088.031-.172.027-.259h-.41z"/>
    </g>
</svg>
