<svg width="16" height="16" viewBox="0 0 16 16" fill="none" xmlns="http://www.w3.org/2000/svg">
<path fill-rule="evenodd" clip-rule="evenodd" d="M15.5966 0.888609C15.7167 1.12431 15.7167 1.43286 15.7167 2.04995V6.71878C15.7167 6.98829 15.7167 7.12304 15.6863 7.24985C15.6593 7.36227 15.6148 7.46975 15.5543 7.56834C15.4862 7.67953 15.3909 7.77482 15.2004 7.96537L15.2004 7.96539L9.65653 13.5092L2.49449 6.34717L8.03832 0.803347C8.22889 0.61278 8.32417 0.517497 8.43536 0.449356C8.53395 0.388943 8.64143 0.344423 8.75386 0.317432C8.88067 0.286987 9.01542 0.286987 9.28492 0.286987H13.9538C14.5708 0.286987 14.8794 0.286987 15.1151 0.407082C15.3224 0.51272 15.491 0.681282 15.5966 0.888609ZM1.66811 7.17356L8.83014 14.3356L8.83013 14.3356C8.1468 15.0189 7.80513 15.3606 7.4281 15.527C6.86127 15.7772 6.21531 15.7772 5.64847 15.527C5.27144 15.3606 4.92977 15.0189 4.24644 14.3356L1.66811 11.7573L1.6681 11.7573C0.984767 11.0739 0.643099 10.7323 0.476694 10.3552C0.226519 9.78839 0.226518 9.14243 0.476693 8.5756C0.643098 8.19858 0.984767 7.8569 1.66811 7.17356ZM12.1357 5.24532C12.8964 5.24532 13.513 4.62868 13.513 3.86801C13.513 3.10734 12.8964 2.49069 12.1357 2.49069C11.375 2.49069 10.7584 3.10734 10.7584 3.86801C10.7584 4.62868 11.375 5.24532 12.1357 5.24532Z" fill="#F5670A"/>
</svg>
