<svg width="24" height="24" viewBox="0 0 24 24" fill="none" xmlns="http://www.w3.org/2000/svg">
<path fill-rule="evenodd" clip-rule="evenodd" d="M2 17.7273V6.27273C2 5.56955 2.59667 5 3.33333 5H20.6667C21.4033 5 22 5.56955 22 6.27273V17.7273C22 18.4305 21.4033 19 20.6667 19H3.33333C2.59667 19 2 18.4305 2 17.7273Z" fill="white" stroke="#676767" stroke-linecap="square"/>
<path fill-rule="evenodd" clip-rule="evenodd" d="M7.23743 14.4032C7.8356 14.4032 8.39299 14.1595 8.80083 13.715C9.19508 13.2849 9.42619 12.6828 9.42619 12.0519C9.42619 11.4211 9.19508 10.819 8.78724 10.3889C8.37939 9.94441 7.82201 9.70068 7.22384 9.70068C6.62567 9.70068 6.06828 9.94441 5.66044 10.3889C5.2526 10.819 5.02148 11.4211 5.02148 12.0519C5.02148 12.6828 5.2526 13.2849 5.66044 13.715C6.08188 14.1595 6.62567 14.4032 7.23743 14.4032ZM5.83717 12.0519C5.83717 11.1487 6.43534 10.4605 7.22384 10.4605C8.01233 10.4605 8.6105 11.1487 8.6105 12.0519C8.6105 12.9552 8.01233 13.6433 7.22384 13.6433C6.43534 13.6433 5.83717 12.9552 5.83717 12.0519Z" fill="#4C2A86"/>
<path d="M13.9258 10.2456L12.2536 14.389H12.0905C11.805 14.389 11.5331 14.2026 11.4243 13.9159L10.0512 10.5754H9.61621V9.82983H11.3699V10.5754H10.9349L11.9545 13.1273L12.9333 10.5754H12.4983V9.82983H13.8986V10.2456H13.9258Z" fill="#4C2A86"/>
<path fill-rule="evenodd" clip-rule="evenodd" d="M16.4142 14.4032C17.0124 14.4032 17.5697 14.1595 17.9776 13.715C18.3854 13.2849 18.6165 12.6828 18.6165 12.0519C18.6165 11.4211 18.3854 10.819 17.9776 10.3889C17.5697 9.94441 17.0124 9.70068 16.4142 9.70068C15.8024 9.70068 15.245 9.94441 14.8372 10.3889C14.4294 10.819 14.1982 11.4211 14.1982 12.0519C14.1982 12.6828 14.4294 13.2849 14.8372 13.715C15.2586 14.1595 15.8024 14.4032 16.4142 14.4032ZM15.0275 12.0519C15.0275 11.1487 15.6257 10.4605 16.4142 10.4605C17.2027 10.4605 17.8009 11.1487 17.8009 12.0519C17.8009 12.9552 17.2027 13.6433 16.4142 13.6433C15.6257 13.6433 15.0275 12.9552 15.0275 12.0519Z" fill="#4C2A86"/>
</svg>
