<svg width="32" height="40" viewBox="0 0 32 40" fill="none" xmlns="http://www.w3.org/2000/svg">
  <path opacity="0.3" fill-rule="evenodd" clip-rule="evenodd" d="M16 39.75C18.2091 39.75 20 38.7426 20 37.5C20 36.2574 18.2091 35.25 16 35.25C13.7909 35.25 12 36.2574 12 37.5C12 38.7426 13.7909 39.75 16 39.75Z" fill="#696262"/>
  <rect x="15" y="24" width="2" height="14" rx="1" fill="white"/>
  <path d="M31 16C31 24.2843 24.2843 31 16 31C7.71573 31 1 24.2843 1 16C1 7.71573 7.71573 1 16 1C24.2843 1 31 7.71573 31 16Z" fill="#00A5CF" stroke="white" stroke-width="2"/>
  <g filter="url(#filter0_d_10002_260408)">
    <path fill-rule="evenodd" clip-rule="evenodd" d="M16 21C18.7614 21 21 18.7614 21 16C21 13.2386 18.7614 11 16 11C13.2386 11 11 13.2386 11 16C11 18.7614 13.2386 21 16 21Z" fill="white"/>
  </g>
  <defs>
    <filter id="filter0_d_10002_260408" x="5" y="7" width="22" height="22" filterUnits="userSpaceOnUse" color-interpolation-filters="sRGB">
      <feFlood flood-opacity="0" result="BackgroundImageFix"/>
      <feColorMatrix in="SourceAlpha" type="matrix" values="0 0 0 0 0 0 0 0 0 0 0 0 0 0 0 0 0 0 127 0" result="hardAlpha"/>
      <feOffset dy="2"/>
      <feGaussianBlur stdDeviation="3"/>
      <feColorMatrix type="matrix" values="0 0 0 0 0.109804 0 0 0 0 0.109804 0 0 0 0 0.109804 0 0 0 0.25 0"/>
      <feBlend mode="normal" in2="BackgroundImageFix" result="effect1_dropShadow_10002_260408"/>
      <feBlend mode="normal" in="SourceGraphic" in2="effect1_dropShadow_10002_260408" result="shape"/>
    </filter>
  </defs>
</svg>
