<svg width="24" height="24" viewBox="0 0 24 24" fill="none" xmlns="http://www.w3.org/2000/svg">
<circle cx="12" cy="12" r="12" fill="#E5E9F0"/>
<path d="M12 8.66667V6.66667C12 6.3 11.7 6 11.3334 6H6.00004C5.63337 6 5.33337 6.3 5.33337 6.66667V17.3333C5.33337 17.7 5.63337 18 6.00004 18H18C18.3667 18 18.6667 17.7 18.6667 17.3333V9.33333C18.6667 8.96667 18.3667 8.66667 18 8.66667H12ZM8.00004 16.6667H6.66671V15.3333H8.00004V16.6667ZM8.00004 14H6.66671V12.6667H8.00004V14ZM8.00004 11.3333H6.66671V10H8.00004V11.3333ZM8.00004 8.66667H6.66671V7.33333H8.00004V8.66667ZM10.6667 16.6667H9.33337V15.3333H10.6667V16.6667ZM10.6667 14H9.33337V12.6667H10.6667V14ZM10.6667 11.3333H9.33337V10H10.6667V11.3333ZM10.6667 8.66667H9.33337V7.33333H10.6667V8.66667ZM17.3334 16.6667H12V15.3333H13.3334V14H12V12.6667H13.3334V11.3333H12V10H17.3334V16.6667ZM16 11.3333H14.6667V12.6667H16V11.3333ZM16 14H14.6667V15.3333H16V14Z" fill="#50565E"/>
<circle cx="12" cy="12" r="12" fill="#E5E9F0"/>
<path d="M16.6667 8.00033H15.3333C15.3333 6.16033 13.84 4.66699 12 4.66699C10.16 4.66699 8.66667 6.16033 8.66667 8.00033H7.33333C6.6 8.00033 6 8.60033 6 9.33366V17.3337C6 18.067 6.6 18.667 7.33333 18.667H16.6667C17.4 18.667 18 18.067 18 17.3337V9.33366C18 8.60033 17.4 8.00033 16.6667 8.00033ZM12 6.00033C13.1067 6.00033 14 6.89366 14 8.00033H10C10 6.89366 10.8933 6.00033 12 6.00033ZM12 13.3337C10.4467 13.3337 9.14 12.2737 8.77333 10.8337C8.66 10.4137 8.98667 10.0003 9.42 10.0003C9.73333 10.0003 9.98667 10.227 10.0733 10.5337C10.3067 11.3803 11.08 12.0003 12 12.0003C12.92 12.0003 13.6933 11.3803 13.9267 10.5337C14.0133 10.227 14.2667 10.0003 14.58 10.0003C15.0133 10.0003 15.3333 10.4137 15.2267 10.8337C14.86 12.2737 13.5533 13.3337 12 13.3337Z" fill="#50565E"/>
<circle cx="12" cy="12" r="12" fill="#E5E9F0"/>
<circle cx="12" cy="12" r="12" fill="#E5E9F0"/>
<path fill-rule="evenodd" clip-rule="evenodd" d="M13.1605 18.3723C12.9044 18.7639 12.468 19 12.0001 19C11.5321 19 11.0957 18.7639 10.8396 18.3723L7.68668 13.5501C7.23469 12.8588 6.9434 12.075 6.83424 11.2563L6.79305 10.9474C6.37316 7.79822 8.82305 5 12.0001 5C15.1771 5 17.627 7.79822 17.2071 10.9474L17.1659 11.2563C17.0567 12.075 16.7654 12.8588 16.3135 13.5501L13.1605 18.3723ZM12.0001 12C13.1046 12 14.0001 11.1046 14.0001 10C14.0001 8.89543 13.1046 8 12.0001 8C10.8955 8 10.0001 8.89543 10.0001 10C10.0001 11.1046 10.8955 12 12.0001 12Z" fill="#868D95"/>
<circle cx="12" cy="12" r="12" fill="#E5E9F0"/>
<path d="M12 8.66667V6.66667C12 6.3 11.7 6 11.3334 6H6.00004C5.63337 6 5.33337 6.3 5.33337 6.66667V17.3333C5.33337 17.7 5.63337 18 6.00004 18H18C18.3667 18 18.6667 17.7 18.6667 17.3333V9.33333C18.6667 8.96667 18.3667 8.66667 18 8.66667H12ZM8.00004 16.6667H6.66671V15.3333H8.00004V16.6667ZM8.00004 14H6.66671V12.6667H8.00004V14ZM8.00004 11.3333H6.66671V10H8.00004V11.3333ZM8.00004 8.66667H6.66671V7.33333H8.00004V8.66667ZM10.6667 16.6667H9.33337V15.3333H10.6667V16.6667ZM10.6667 14H9.33337V12.6667H10.6667V14ZM10.6667 11.3333H9.33337V10H10.6667V11.3333ZM10.6667 8.66667H9.33337V7.33333H10.6667V8.66667ZM17.3334 16.6667H12V15.3333H13.3334V14H12V12.6667H13.3334V11.3333H12V10H17.3334V16.6667ZM16 11.3333H14.6667V12.6667H16V11.3333ZM16 14H14.6667V15.3333H16V14Z" fill="#50565E"/>
<circle cx="12" cy="12" r="12" fill="#E5E9F0"/>
<path d="M16.6667 8.00033H15.3333C15.3333 6.16033 13.84 4.66699 12 4.66699C10.16 4.66699 8.66667 6.16033 8.66667 8.00033H7.33333C6.6 8.00033 6 8.60033 6 9.33366V17.3337C6 18.067 6.6 18.667 7.33333 18.667H16.6667C17.4 18.667 18 18.067 18 17.3337V9.33366C18 8.60033 17.4 8.00033 16.6667 8.00033ZM12 6.00033C13.1067 6.00033 14 6.89366 14 8.00033H10C10 6.89366 10.8933 6.00033 12 6.00033ZM12 13.3337C10.4467 13.3337 9.14 12.2737 8.77333 10.8337C8.66 10.4137 8.98667 10.0003 9.42 10.0003C9.73333 10.0003 9.98667 10.227 10.0733 10.5337C10.3067 11.3803 11.08 12.0003 12 12.0003C12.92 12.0003 13.6933 11.3803 13.9267 10.5337C14.0133 10.227 14.2667 10.0003 14.58 10.0003C15.0133 10.0003 15.3333 10.4137 15.2267 10.8337C14.86 12.2737 13.5533 13.3337 12 13.3337Z" fill="#50565E"/>
<circle cx="12" cy="12" r="12" fill="#E5E9F0"/>
<circle cx="12" cy="12" r="12" fill="#E5E9F0"/>
<path fill-rule="evenodd" clip-rule="evenodd" d="M13.1605 18.3723C12.9044 18.7639 12.468 19 12.0001 19C11.5321 19 11.0957 18.7639 10.8396 18.3723L7.68668 13.5501C7.23469 12.8588 6.9434 12.075 6.83424 11.2563L6.79305 10.9474C6.37316 7.79822 8.82305 5 12.0001 5C15.1771 5 17.627 7.79822 17.2071 10.9474L17.1659 11.2563C17.0567 12.075 16.7654 12.8588 16.3135 13.5501L13.1605 18.3723ZM12.0001 12C13.1046 12 14.0001 11.1046 14.0001 10C14.0001 8.89543 13.1046 8 12.0001 8C10.8955 8 10.0001 8.89543 10.0001 10C10.0001 11.1046 10.8955 12 12.0001 12Z" fill="#868D95"/>
<circle cx="12" cy="12" r="12" fill="#E5E9F0"/>
<path d="M12 8.66667V6.66667C12 6.3 11.7 6 11.3334 6H6.00004C5.63337 6 5.33337 6.3 5.33337 6.66667V17.3333C5.33337 17.7 5.63337 18 6.00004 18H18C18.3667 18 18.6667 17.7 18.6667 17.3333V9.33333C18.6667 8.96667 18.3667 8.66667 18 8.66667H12ZM8.00004 16.6667H6.66671V15.3333H8.00004V16.6667ZM8.00004 14H6.66671V12.6667H8.00004V14ZM8.00004 11.3333H6.66671V10H8.00004V11.3333ZM8.00004 8.66667H6.66671V7.33333H8.00004V8.66667ZM10.6667 16.6667H9.33337V15.3333H10.6667V16.6667ZM10.6667 14H9.33337V12.6667H10.6667V14ZM10.6667 11.3333H9.33337V10H10.6667V11.3333ZM10.6667 8.66667H9.33337V7.33333H10.6667V8.66667ZM17.3334 16.6667H12V15.3333H13.3334V14H12V12.6667H13.3334V11.3333H12V10H17.3334V16.6667ZM16 11.3333H14.6667V12.6667H16V11.3333ZM16 14H14.6667V15.3333H16V14Z" fill="#50565E"/>
<circle cx="12" cy="12" r="12" fill="#E5E9F0"/>
<path d="M16.6667 8.00033H15.3333C15.3333 6.16033 13.84 4.66699 12 4.66699C10.16 4.66699 8.66667 6.16033 8.66667 8.00033H7.33333C6.6 8.00033 6 8.60033 6 9.33366V17.3337C6 18.067 6.6 18.667 7.33333 18.667H16.6667C17.4 18.667 18 18.067 18 17.3337V9.33366C18 8.60033 17.4 8.00033 16.6667 8.00033ZM12 6.00033C13.1067 6.00033 14 6.89366 14 8.00033H10C10 6.89366 10.8933 6.00033 12 6.00033ZM12 13.3337C10.4467 13.3337 9.14 12.2737 8.77333 10.8337C8.66 10.4137 8.98667 10.0003 9.42 10.0003C9.73333 10.0003 9.98667 10.227 10.0733 10.5337C10.3067 11.3803 11.08 12.0003 12 12.0003C12.92 12.0003 13.6933 11.3803 13.9267 10.5337C14.0133 10.227 14.2667 10.0003 14.58 10.0003C15.0133 10.0003 15.3333 10.4137 15.2267 10.8337C14.86 12.2737 13.5533 13.3337 12 13.3337Z" fill="#50565E"/>
<circle cx="12" cy="12" r="12" fill="#E5E9F0"/>
<circle cx="12" cy="12" r="12" fill="#00B14F"/>
<path fill-rule="evenodd" clip-rule="evenodd" d="M13.1605 18.3723C12.9044 18.7639 12.468 19 12.0001 19C11.5321 19 11.0957 18.7639 10.8396 18.3723L7.68668 13.5501C7.23469 12.8588 6.9434 12.075 6.83424 11.2563L6.79305 10.9474C6.37316 7.79822 8.82305 5 12.0001 5C15.1771 5 17.627 7.79822 17.2071 10.9474L17.1659 11.2563C17.0567 12.075 16.7654 12.8588 16.3135 13.5501L13.1605 18.3723ZM12.0001 12C13.1046 12 14.0001 11.1046 14.0001 10C14.0001 8.89543 13.1046 8 12.0001 8C10.8955 8 10.0001 8.89543 10.0001 10C10.0001 11.1046 10.8955 12 12.0001 12Z" fill="white"/>
</svg>
