<svg width="24" height="24" viewBox="0 0 24 24" fill="none" xmlns="http://www.w3.org/2000/svg">
<circle cx="12" cy="12" r="12" fill="url(#paint0_linear_24371_306603)"/>
<path fill-rule="evenodd" clip-rule="evenodd" d="M7.00391 8.49951V17.6143C7.00391 18.0689 7.00391 18.2962 7.09937 18.4276C7.18265 18.5422 7.31064 18.6162 7.45155 18.631C7.6131 18.648 7.80997 18.5344 8.20372 18.3072L11.2043 16.5759C11.4956 16.4078 11.6412 16.3238 11.7961 16.2909C11.9331 16.2618 12.0747 16.2618 12.2117 16.2909C12.3666 16.3238 12.5122 16.4078 12.8035 16.5759L15.8041 18.3072C16.1978 18.5344 16.3947 18.648 16.5563 18.631C16.6972 18.6162 16.8252 18.5422 16.9084 18.4276C17.0039 18.2962 17.0039 18.0689 17.0039 17.6143V8.49951H7.00391ZM17.0039 7.49951C17.0039 7.03486 17.0039 6.80253 16.9655 6.60933C16.8077 5.81595 16.1875 5.19575 15.3941 5.03794C15.2009 4.99951 14.9686 4.99951 14.5039 4.99951H9.50391C9.03925 4.99951 8.80692 4.99951 8.61373 5.03794C7.82034 5.19575 7.20015 5.81595 7.04234 6.60933C7.00391 6.80253 7.00391 7.03486 7.00391 7.49951H17.0039Z" fill="white"/>
<defs>
<linearGradient id="paint0_linear_24371_306603" x1="-12" y1="12" x2="12" y2="36" gradientUnits="userSpaceOnUse">
<stop stop-color="#33C072"/>
<stop offset="1" stop-color="#33B7D8"/>
</linearGradient>
</defs>
</svg>
