<svg width="18" height="18" viewBox="0 0 18 18" fill="none" xmlns="http://www.w3.org/2000/svg">
<path d="M12.103 3.80526V2.45883H12.2137V2.40883V2.35883C12.153 2.35883 12.103 2.3089 12.103 2.24812H12.053H12.003V2.35883H5.99587V2.24812H5.94587H5.89587C5.89587 2.3089 5.84594 2.35883 5.78516 2.35883V2.40883V2.45883H5.89587V3.80526H4.54944V2.24812C4.54944 1.56658 5.10362 1.0124 5.78516 1.0124H12.2137C12.8953 1.0124 13.4494 1.56658 13.4494 2.24812V3.80526H12.103ZM5.94587 3.90526H5.99587H12.003H12.053H13.4994H13.5494H16.0709C16.3988 3.90526 16.6637 4.17015 16.6637 4.49812V5.14097C16.6637 5.20175 16.6138 5.25169 16.553 5.25169H15.3396H15.2919L15.2897 5.29933L14.7935 15.806L14.7935 15.806C14.7626 16.4664 14.2201 16.9838 13.5597 16.9838H4.43917C3.78084 16.9838 3.23631 16.4644 3.20541 15.806L3.20541 15.806L2.70921 5.29933L2.70696 5.25169H2.65926H1.44587C1.38509 5.25169 1.33516 5.20175 1.33516 5.14097V4.49812C1.33516 4.17015 1.60005 3.90526 1.92801 3.90526H4.44944H4.49944H5.94587ZM13.405 15.6374H13.4527L13.455 15.5898L13.9411 5.30405L13.9436 5.25169H13.8912H4.1077H4.05528L4.05776 5.30405L4.54392 15.5898L4.54617 15.6374H4.59386H13.405Z" fill="#708598" stroke="white" stroke-width="0.1"/>
</svg>
