<svg width="18" height="17" viewBox="0 0 18 17" fill="none" xmlns="http://www.w3.org/2000/svg">
  <path fill-rule="evenodd" clip-rule="evenodd" d="M7.65651 1.89325L1.41073 13.143C0.948165 13.9761 1.55064 14.9997 2.50359 14.9997H14.9955C15.9485 14.9997 16.5509 13.9761 16.0884 13.143L9.84223 1.89322C9.36604 1.03558 8.13268 1.0356 7.65651 1.89325ZM6.56365 1.2865L0.317865 12.5362C-0.607264 14.2025 0.597689 16.2497 2.50359 16.2497H14.9955C16.9014 16.2497 18.1064 14.2025 17.1812 12.5362L10.9351 1.28645C9.98271 -0.428838 7.51597 -0.428809 6.56365 1.2865ZM8.75 11.2497C8.23223 11.2497 7.8125 11.6695 7.8125 12.1872C7.8125 12.705 8.23223 13.1247 8.75 13.1247C9.26777 13.1247 9.6875 12.705 9.6875 12.1872C9.6875 11.6695 9.26777 11.2497 8.75 11.2497ZM8.06226 9.99973H9.43726L9.43726 4.68723H8.06226L8.06226 9.99973Z" fill="#F55538"/>
</svg>
